# xmcd CD database file
#
# Track frame offsets:
#	150
#	22805
#	37654
#	61413
#	78808
#	93815
#	114415
#	130265
#	149623
#	174919
#	195305
#	214208
#	231103
#	250219
#
# Disc length: 3639 seconds
#
# Revision: 0
# Processed by: cddbd v1.5.2PL0 Copyright (c) Steve Scherf et al.
# Submitted via: CDex 1.70beta2
#
DISCID=aa0e350e
DTITLE=Gregory Porter - Take Me To The Alley  (2016) (import USA)
DYEAR=2016
DGENRE=Jazz
TTITLE0=Holding On 
TTITLE1=Don't Lose Your Steam 
TTITLE2=Take Me To The Alley
TTITLE3=Day Dream
TTITLE4=Consequence Of Love
TTITLE5=In Fashion
TTITLE6=More Than A Woman 
TTITLE7=In Heaven 
TTITLE8=Insanity
TTITLE9=Don't Be A Fool
TTITLE10=Fan The Flames
TTITLE11=French African Queen 
TTITLE12=Holding On [feat. Kem]
TTITLE13=Insanity [feat. Lalah Hathaway] 
EXTD=YEAR: 2016
EXTT0=
EXTT1=
EXTT2=
EXTT3=
EXTT4=
EXTT5=
EXTT6=
EXTT7=
EXTT8=
EXTT9=
EXTT10=
EXTT11=
EXTT12=
EXTT13=
PLAYORDER=
